# xmcd CD database file
#
# Track frame offsets:
#	150
#	17880
#	43142
#	73443
#	87266
#	138627
#	155377
#	188064
#	204240
#	221848
#	244519
#	268267
#
# Disc length: 3949 seconds
#
# Revision: 0
# Processed by: cddbd v1.5.2PL0 Copyright (c) Steve Scherf et al.
# Submitted via: CDex 1.70beta2
#
DISCID=b60f6b0c
DTITLE=Celestial Navigations - The Space Racer
DYEAR=1900
DGENRE=New Age
TTITLE0=The beginning
TTITLE1=Vengeance
TTITLE2=Roller Rink
TTITLE3=Dear Laddie
TTITLE4=The Space Racer
TTITLE5=The Freeway
TTITLE6=The Wind
TTITLE7=Nebula Hunting
TTITLE8=EVE
TTITLE9=The Prison
TTITLE10=I'm Alright
TTITLE11=Crash Landing
EXTD=
EXTT0=
EXTT1=
EXTT2=
EXTT3=
EXTT4=
EXTT5=
EXTT6=
EXTT7=
EXTT8=
EXTT9=
EXTT10=
EXTT11=
PLAYORDER=
